<svg width="43" height="28" viewBox="0 0 43 28" fill="none" xmlns="http://www.w3.org/2000/svg">
<g clip-path="url(#clip0_449_5186)">
<path opacity="0.07" d="M39.3755 0.568848H3.99067C2.11085 0.568848 0.67334 2.00636 0.67334 3.88618V23.7902C0.67334 25.67 2.22143 27.1075 3.99067 27.1075H39.3755C41.2553 27.1075 42.6929 25.67 42.6929 23.7902V3.88618C42.6929 2.00636 41.1448 0.568848 39.3755 0.568848Z" fill="black"/>
<path d="M39.3762 1.6748C40.5926 1.6748 41.5878 2.67 41.5878 3.88636V23.7903C41.5878 25.0067 40.5926 26.0019 39.3762 26.0019H3.99134C2.77498 26.0019 1.77979 25.0067 1.77979 23.7903V3.88636C1.77979 2.67 2.77498 1.6748 3.99134 1.6748H39.3762Z" fill="#006FCF"/>
<path d="M10.5935 11.9234L11.4494 13.9979H9.74426L10.5935 11.9234ZM28.3689 12.0097H25.077V12.9242H28.3158V14.2942H25.0836V15.3137H28.3755V16.1309L30.6722 13.6484L28.3755 11.0609L28.3689 12.0097ZM12.8183 9.42216H17.2359L18.2167 11.5618L19.1257 9.41553H30.5926L31.7846 10.7314L33.0175 9.41553H38.2844L34.3931 13.675L38.2446 17.9079H32.8992L31.7072 16.592L30.4632 17.9079H11.7645L11.2183 16.592H9.96873L9.42137 17.9079H5.09668L8.73026 9.41553H12.5231L12.8183 9.42216ZM22.3977 10.6142H19.9218L18.2632 14.5242L16.4663 10.6142H14.0092V15.933L11.7313 10.6142H9.52753L6.89357 16.7092H8.61305L9.1593 15.3934H12.0299L12.5762 16.7092H15.5839V12.358L17.5201 16.7159H18.836L20.76 12.3713V16.717H22.3722L22.3988 10.6131L22.3977 10.6142ZM32.7256 13.675L35.5243 10.6142H33.5096L31.7393 12.5228L30.0275 10.6142H23.5101V16.7159H29.9346L31.7194 14.794L33.4311 16.7159H35.5044L32.7256 13.675Z" fill="white"/>
</g>
<defs>
<clipPath id="clip0_449_5186">
<rect width="42.0195" height="26.5386" fill="white" transform="translate(0.67334 0.569336)"/>
</clipPath>
</defs>
</svg>
