<svg width="24" height="23" viewBox="0 0 24 23" fill="none" xmlns="http://www.w3.org/2000/svg">
<path fill-rule="evenodd" clip-rule="evenodd" d="M21.0663 11.3332C21.0663 10.7072 20.5589 10.1998 19.933 10.1998H6.80335L9.40107 7.60123C9.80961 7.19268 9.84104 6.54981 9.49535 6.10522L9.40107 5.99845C8.99252 5.5899 8.34966 5.55847 7.90506 5.90417L7.79829 5.99845L3.26496 10.5318L3.21804 10.5816L3.15553 10.6585L3.07431 10.7846L3.01373 10.9123L2.97364 11.0317L2.94076 11.2L2.93301 11.3332L2.93617 11.4184L2.95595 11.5607L2.98938 11.6869L3.03918 11.8128L3.09847 11.9233L3.17417 12.0322C3.20237 12.0681 3.2327 12.1023 3.26496 12.1346L7.79829 16.6679C8.24089 17.1105 8.95847 17.1105 9.40107 16.6679C9.80961 16.2593 9.84104 15.6165 9.49535 15.1719L9.40107 15.0651L6.80335 12.4665H19.933C20.5589 12.4665 21.0663 11.9591 21.0663 11.3332Z" fill="black"/>
</svg>
