<svg width="33" height="32" viewBox="0 0 33 32" fill="none" xmlns="http://www.w3.org/2000/svg">
<g clip-path="url(#clip0_501_1169)">
<path fill-rule="evenodd" clip-rule="evenodd" d="M7.5963 10H26.5963L23.5963 21H10.5963L7.5963 10Z" stroke="white" stroke-width="2" stroke-linejoin="round"/>
<path d="M10.0781 19.0952L6.48843 6.09521H3.07812" stroke="white" stroke-width="2" stroke-linecap="round" stroke-linejoin="round"/>
<path fill-rule="evenodd" clip-rule="evenodd" d="M13.4923 27.4142C14.2734 26.6332 14.2734 25.3668 13.4923 24.5858C12.7113 23.8047 11.445 23.8047 10.6639 24.5858C9.88286 25.3668 9.88286 26.6332 10.6639 27.4142C11.445 28.1953 12.7113 28.1953 13.4923 27.4142Z" stroke="white" stroke-width="2"/>
<path fill-rule="evenodd" clip-rule="evenodd" d="M23.4923 27.4142C24.2734 26.6332 24.2734 25.3668 23.4923 24.5858C22.7113 23.8047 21.445 23.8047 20.6639 24.5858C19.8829 25.3668 19.8829 26.6332 20.6639 27.4142C21.445 28.1953 22.7113 28.1953 23.4923 27.4142Z" stroke="white" stroke-width="2"/>
</g>
<defs>
<clipPath id="clip0_501_1169">
<rect width="32" height="32" fill="white" transform="translate(0.078125)"/>
</clipPath>
</defs>
</svg>
