<svg width="16" height="17" viewBox="0 0 16 17" fill="none" xmlns="http://www.w3.org/2000/svg">
<path d="M8.00005 0.5C6.41779 0.5 4.87106 0.969194 3.55546 1.84825C2.23986 2.72731 1.21447 3.97674 0.608971 5.43856C0.00346629 6.90037 -0.154961 8.50892 0.153722 10.0608C0.462406 11.6126 1.22434 13.0381 2.34316 14.1569C3.46199 15.2758 4.88746 16.0377 6.43932 16.3464C7.99117 16.6551 9.59971 16.4966 11.0615 15.8911C12.5233 15.2856 13.7728 14.2602 14.6518 12.9446C15.5309 11.629 16.0001 10.0823 16.0001 8.50004C16.0001 7.44946 15.7932 6.40917 15.3911 5.43856C14.9891 4.46795 14.3998 3.58603 13.6569 2.84316C12.9141 2.10029 12.0321 1.51101 11.0615 1.10897C10.0909 0.706927 9.05063 0.5 8.00005 0.5ZM11.4401 6.58803L7.78405 11.3881C7.70952 11.4849 7.61381 11.5633 7.50426 11.6174C7.3947 11.6715 7.27422 11.6998 7.15204 11.7001C7.03053 11.7007 6.91046 11.6737 6.80095 11.621C6.69145 11.5683 6.59538 11.4914 6.52004 11.3961L4.56803 8.90804C4.50342 8.82505 4.45579 8.73014 4.42786 8.62874C4.39992 8.52733 4.39224 8.42142 4.40524 8.31705C4.41824 8.21267 4.45167 8.11188 4.50362 8.02043C4.55558 7.92897 4.62503 7.84865 4.70803 7.78404C4.87565 7.65355 5.08823 7.59499 5.29903 7.62125C5.4034 7.63425 5.50419 7.66768 5.59564 7.71963C5.6871 7.77159 5.76742 7.84104 5.83203 7.92404L7.13604 9.58805L10.1601 5.58803C10.2241 5.50398 10.3042 5.43338 10.3955 5.38026C10.4869 5.32713 10.5878 5.29252 10.6926 5.27841C10.7973 5.26429 10.9038 5.27095 11.006 5.29799C11.1082 5.32504 11.204 5.37194 11.2881 5.43603C11.3721 5.50011 11.4427 5.58012 11.4958 5.67149C11.549 5.76286 11.5836 5.8638 11.5977 5.96855C11.6118 6.07329 11.6051 6.17979 11.5781 6.28197C11.5511 6.38414 11.5042 6.47999 11.4401 6.56403V6.58803Z" fill="black"/>
</svg>
