<svg width="16" height="17" viewBox="0 0 16 17" fill="none" xmlns="http://www.w3.org/2000/svg">
<path d="M8.00005 0.450684C6.41779 0.450684 4.87106 0.919878 3.55546 1.79893C2.23986 2.67799 1.21447 3.92743 0.608971 5.38924C0.00346629 6.85106 -0.154961 8.4596 0.153722 10.0115C0.462406 11.5633 1.22434 12.9888 2.34316 14.1076C3.46199 15.2264 4.88746 15.9884 6.43932 16.2971C7.99117 16.6057 9.59971 16.4473 11.0615 15.8418C12.5233 15.2363 13.7728 14.2109 14.6518 12.8953C15.5309 11.5797 16.0001 10.033 16.0001 8.45073C16.0001 7.40015 15.7932 6.35985 15.3911 5.38924C14.9891 4.41863 14.3998 3.53671 13.6569 2.79384C12.9141 2.05097 12.0321 1.46169 11.0615 1.05965C10.0909 0.657611 9.05063 0.450684 8.00005 0.450684ZM11.4401 6.53872L7.78405 11.3387C7.70952 11.4356 7.61381 11.514 7.50426 11.5681C7.3947 11.6222 7.27422 11.6504 7.15204 11.6507C7.03053 11.6514 6.91046 11.6244 6.80095 11.5717C6.69145 11.519 6.59538 11.4421 6.52004 11.3467L4.56803 8.85873C4.50342 8.77573 4.45579 8.68082 4.42786 8.57942C4.39992 8.47802 4.39224 8.3721 4.40524 8.26773C4.41824 8.16336 4.45167 8.06257 4.50362 7.97111C4.55558 7.87966 4.62503 7.79933 4.70803 7.73472C4.87565 7.60423 5.08823 7.54568 5.29903 7.57193C5.4034 7.58493 5.50419 7.61836 5.59564 7.67032C5.6871 7.72227 5.76742 7.79173 5.83203 7.87472L7.13604 9.53873L10.1601 5.53871C10.2241 5.45466 10.3042 5.38406 10.3955 5.33094C10.4869 5.27781 10.5878 5.24321 10.6926 5.22909C10.7973 5.21498 10.9038 5.22163 11.006 5.24868C11.1082 5.27572 11.204 5.32262 11.2881 5.38671C11.3721 5.4508 11.4427 5.53081 11.4958 5.62218C11.549 5.71355 11.5836 5.81449 11.5977 5.91923C11.6118 6.02398 11.6051 6.13048 11.5781 6.23265C11.5511 6.33482 11.5042 6.43067 11.4401 6.51472V6.53872Z" fill="#414141"/>
</svg>
