<svg width="16" height="16" viewBox="0 0 16 16" fill="none" xmlns="http://www.w3.org/2000/svg">
<path d="M15.2329 0.804064L15.2241 0.794292L15.2148 0.784995C14.8347 0.405002 14.1895 0.405001 13.8094 0.784996L8 6.59225L2.19061 0.784996C1.81048 0.405001 1.16531 0.405001 0.785176 0.784996C0.404941 1.16509 0.404941 1.81034 0.785176 2.19044L6.5943 7.99743L0.785176 13.8044C0.404941 14.1845 0.404941 14.8298 0.785176 15.2099C0.991489 15.4161 1.24665 15.5 1.48789 15.5C1.72914 15.5 1.9843 15.4161 2.19061 15.2099L8 9.40261L13.8094 15.2099C14.0157 15.4161 14.2709 15.5 14.5121 15.5C14.7534 15.5 15.0085 15.4161 15.2148 15.2099C15.5951 14.8298 15.5951 14.1845 15.2148 13.8044L9.4057 7.99743L15.2148 2.19044C15.6047 1.80071 15.5794 1.1889 15.2329 0.804064Z" fill="#565656" stroke="#565656"/>
</svg>
