<svg width="123" height="35" viewBox="0 0 123 35" fill="none" xmlns="http://www.w3.org/2000/svg">
<g clip-path="url(#clip0_430_4058)">
<path d="M14.7499 26.7559H20.5216V3.36325H14.7499V12.5357H5.74919V3.36325H0V26.7559H5.7717V17.1387H14.7724L14.7499 26.7559ZM36.5203 15.6377H29.2972C29.3965 14.7247 29.8356 13.8806 30.5292 13.2695C31.2147 12.706 32.085 12.4095 32.9763 12.4357C33.8996 12.4049 34.8017 12.714 35.5077 13.3029C35.8427 13.5923 36.1076 13.9523 36.2828 14.3564C36.4581 14.7606 36.5392 15.1984 36.5203 15.6377ZM42.3257 18.8064C42.3918 18.2529 42.4256 17.696 42.427 17.1387C42.4663 15.4291 42.0532 13.739 41.2288 12.2356C40.4591 10.8631 39.3046 9.7396 37.9041 9.00016C36.404 8.23254 34.7326 7.85019 33.0438 7.88834C31.3164 7.85472 29.6088 8.25649 28.0821 9.05575C26.6505 9.8166 25.4768 10.9765 24.7069 12.3912C23.8795 13.9536 23.4672 15.6981 23.5087 17.4611C23.4671 19.226 23.8856 20.9719 24.7238 22.531C25.499 23.9418 26.6714 25.1003 28.099 25.8664C29.615 26.662 31.3107 27.0637 33.0269 27.0338C34.4554 27.0546 35.8715 26.7702 37.1785 26.2C39.0445 25.3917 40.5485 23.9391 41.4088 22.114L35.8284 20.6409C35.573 21.2016 35.1496 21.6712 34.6154 21.9864C34.0811 22.3016 33.4619 22.447 32.8413 22.4031C31.9354 22.4264 31.0565 22.097 30.3942 21.4859C29.6903 20.7763 29.2878 19.8276 29.2691 18.8342L42.3257 18.8064ZM73.5806 26.7559H76.5171V21.9195H74.4582C73.9779 21.9643 73.4976 21.8338 73.1081 21.5526C72.9595 21.3914 72.8467 21.2013 72.777 20.9945C72.7072 20.7877 72.682 20.5688 72.703 20.3518V12.9026H76.4833V8.1663H72.703V0L69.9297 1.58434L66.9314 3.36325V8.1663H64.6362V12.9026H66.9314V20.3073C66.9314 22.5977 67.5164 24.2487 68.6865 25.2605C69.8566 26.2722 71.4879 26.7781 73.5806 26.7781M117.127 17.4389C117.16 18.0544 117.069 18.6703 116.861 19.2512C116.652 19.8321 116.33 20.3667 115.912 20.8243C115.535 21.2168 115.08 21.5292 114.577 21.7427C114.074 21.9563 113.532 22.0664 112.984 22.0664C112.436 22.0664 111.894 21.9563 111.391 21.7427C110.887 21.5292 110.433 21.2168 110.056 20.8243C109.281 19.8686 108.858 18.6803 108.858 17.4555C108.858 16.2307 109.281 15.0425 110.056 14.0867C110.427 13.6898 110.88 13.3747 111.383 13.1621C111.886 12.9495 112.428 12.844 112.976 12.8526C113.527 12.84 114.074 12.9418 114.583 13.1515C115.092 13.3612 115.55 13.6741 115.929 14.07C116.341 14.5204 116.66 15.0469 116.865 15.6194C117.071 16.1919 117.16 16.7989 117.127 17.4055M123 17.4055C123.038 15.6649 122.663 13.9398 121.903 12.369C121.243 11.0028 120.208 9.84716 118.916 9.03351C117.651 8.25387 116.187 7.84874 114.697 7.86611C113.488 7.83819 112.292 8.11361 111.22 8.66662C110.275 9.15943 109.474 9.88277 108.891 10.768V8.13294H103.12V33.4435L108.891 34.9722V24.1765C109.485 25.0495 110.292 25.7607 111.237 26.2444C112.304 26.7938 113.494 27.0691 114.697 27.045C116.19 27.0618 117.655 26.6504 118.916 25.8609C120.209 25.0343 121.244 23.8677 121.903 22.4921C122.661 20.9149 123.037 19.1846 123 17.4389" fill="white"/>
<path d="M93.2583 8.31085V18.4173C93.3245 19.4733 92.9737 20.5136 92.2795 21.3191C91.9349 21.6687 91.5188 21.9418 91.059 22.1201C90.5992 22.2984 90.1063 22.3778 89.613 22.3531C89.125 22.3759 88.6377 22.2954 88.1837 22.1171C87.7296 21.9388 87.3194 21.6667 86.9803 21.3191C86.2862 20.5136 85.9353 19.4733 86.0015 18.4173V8.31085H80.2692V19.1844C80.2337 20.6474 80.5459 22.0982 81.1805 23.4204C81.7396 24.5694 82.6327 25.5275 83.7457 26.1722C84.9079 26.8211 86.2252 27.1494 87.5597 27.1228C88.7125 27.137 89.8522 26.8797 90.8844 26.3723C91.8323 25.9167 92.6502 25.2346 93.2639 24.3877V26.9227H99.0356V8.31085H93.2583Z" fill="white"/>
<path d="M45.8698 7.95506C46.5737 8.45258 47.1555 9.10004 47.5722 9.84959C47.989 10.5991 48.23 11.4316 48.2774 12.2856C48.8782 11.6542 49.3213 10.8927 49.5713 10.062C49.914 8.89555 50.0789 7.68521 50.0607 6.47078C50.0601 5.58278 50.2122 4.70115 50.5107 3.86358C50.9755 2.64055 51.8331 1.60173 52.9522 0.90614L53.8972 0.300201C53.735 1.03003 53.6951 1.78123 53.7791 2.52384C54.0174 3.9336 54.62 5.25868 55.5286 6.37072C56.1211 7.15641 56.7325 7.92727 57.3625 8.6833C58.5473 10.0475 59.2884 11.7329 59.4889 13.5197C59.5227 13.7967 59.5734 14.0715 59.6408 14.3424C59.6408 14.4258 59.6746 14.5537 59.7758 14.5759C59.8771 14.5982 59.9108 14.4703 59.9558 14.398C60.4954 13.5619 60.8181 12.6072 60.8953 11.6185C60.958 10.8773 60.9372 10.1315 60.8334 9.39487C60.8334 9.28368 60.7321 9.12247 60.9234 9.07244C61.1147 9.0224 61.0978 9.2003 61.1484 9.28924C62.1417 10.8645 62.8605 12.5933 63.2748 14.4036C63.9443 17.8502 63.3311 20.9967 61.0247 23.7317C59.6574 25.2681 57.8311 26.3349 55.8099 26.7781C55.8099 26.7781 55.7705 26.7781 55.7368 26.7781C55.9055 26.5502 56.0855 26.3334 56.2487 26.1055C57.1124 24.9276 57.5268 23.4859 57.4188 22.0352C57.3107 20.5845 56.687 19.2184 55.658 18.1782C55.1269 17.6362 54.7172 16.9899 54.4555 16.2811C54.1938 15.5724 54.086 14.8171 54.1391 14.0645C54.1391 13.9589 54.1391 13.8588 54.1391 13.6976C52.866 14.4951 51.8996 15.6909 51.3939 17.0942C50.9511 18.5144 50.8206 20.0118 51.0114 21.4859C50.7047 21.3475 50.4491 21.1182 50.2801 20.8299C50.0786 20.5125 49.9197 20.1705 49.8076 19.8126C49.8076 19.7459 49.8076 19.6291 49.6894 19.6236C49.5713 19.618 49.56 19.7125 49.5206 19.7792C49.1799 20.3182 49.0296 20.9536 49.0931 21.5859C49.2124 23.3181 49.8574 24.9746 50.9439 26.339L51.1408 26.5947C50.8878 26.6296 50.63 26.5989 50.3926 26.5057C48.8379 26.0905 47.4428 25.2286 46.3843 24.0291C45.3258 22.8297 44.6514 21.3467 44.4465 19.7681C44.1584 17.3271 44.4472 14.8533 45.2903 12.5413C45.5825 11.7407 45.8046 10.9168 45.9541 10.0786C46.0522 9.37591 46.0159 8.66125 45.8472 7.97174" fill="#D03130"/>
</g>
<defs>
<clipPath id="clip0_430_4058">
<rect width="123" height="35" fill="white"/>
</clipPath>
</defs>
</svg>
