<svg width="23" height="23" viewBox="0 0 23 23" fill="none" xmlns="http://www.w3.org/2000/svg">
<path fill-rule="evenodd" clip-rule="evenodd" d="M12.7334 11.4335L17.5993 6.56754C17.9587 6.20809 17.9587 5.62709 17.5993 5.26764C17.2398 4.90818 16.6588 4.90818 16.2994 5.26764L11.4335 10.1336L6.56754 5.26764C6.20809 4.90818 5.62709 4.90818 5.26764 5.26764C4.90818 5.62709 4.90818 6.20809 5.26764 6.56754L10.1336 11.4335L5.26764 16.2994C4.90818 16.6588 4.90818 17.2398 5.26764 17.5993C5.4469 17.7786 5.68224 17.8686 5.91759 17.8686C6.15293 17.8686 6.38828 17.7786 6.56754 17.5993L11.4335 12.7334L16.2994 17.5993C16.4786 17.7786 16.714 17.8686 16.9493 17.8686C17.1847 17.8686 17.42 17.7786 17.5993 17.5993C17.9587 17.2398 17.9587 16.6588 17.5993 16.2994L12.7334 11.4335Z" fill="black"/>
</svg>
