<svg width="43" height="28" viewBox="0 0 43 28" fill="none" xmlns="http://www.w3.org/2000/svg">
<g clip-path="url(#clip0_449_5160)">
<path fill-rule="evenodd" clip-rule="evenodd" d="M39.0616 0.568848H3.67671C1.79688 0.568848 0.359375 2.00636 0.359375 3.88618V23.7902C0.359375 25.67 1.90746 27.1075 3.67671 27.1075H39.0616C40.9414 27.1075 42.3789 25.67 42.3789 23.7902V3.88618C42.3789 2.00636 40.8308 0.568848 39.0616 0.568848Z" fill="#FFB3C7"/>
<path fill-rule="evenodd" clip-rule="evenodd" d="M39.0617 1.67432C40.2781 1.67432 41.2733 2.66952 41.2733 3.88587V23.7899C41.2733 25.0062 40.2781 26.0014 39.0617 26.0014H3.67689C2.46053 26.0014 1.46533 25.0062 1.46533 23.7899V3.88587C1.46533 2.66952 2.46053 1.67432 3.67689 1.67432H39.0617Z" fill="#FFB3C7"/>
<path d="M38.0849 15.1474C37.5464 15.1474 37.1096 15.5897 37.1096 16.1337C37.1096 16.6789 37.5464 17.1212 38.0849 17.1212C38.6245 17.1212 39.0613 16.6789 39.0613 16.1337C39.0625 15.8735 38.9603 15.6234 38.7772 15.4385C38.5942 15.2536 38.3451 15.1488 38.0849 15.1474ZM34.8748 14.3844C34.8748 13.6369 34.2445 13.032 33.4661 13.032C32.6876 13.032 32.0573 13.6369 32.0573 14.3833C32.0573 15.1297 32.6876 15.7357 33.4661 15.7357C34.2445 15.7357 34.8748 15.1297 34.8748 14.3833V14.3844ZM34.8804 11.7571H36.4351V17.0095H34.8804V16.6745C34.4275 16.988 33.8897 17.1558 33.3389 17.1555C31.8251 17.1555 30.5988 15.9148 30.5988 14.3833C30.5988 12.8529 31.8262 11.6122 33.3389 11.6122C33.9106 11.6122 34.4403 11.7891 34.8804 12.0932V11.7571ZM22.4371 12.4416V11.7571H20.8447V17.0095H22.4404V14.558C22.4404 13.7298 23.3272 13.2864 23.9431 13.2864H23.9608V11.7582C23.3305 11.7582 22.7489 12.0313 22.4371 12.4416ZM18.4717 14.3833C18.4717 13.6369 17.8415 13.032 17.063 13.032C16.2856 13.032 15.6542 13.6369 15.6542 14.3833C15.6542 15.1297 16.2845 15.7357 17.063 15.7357C17.8415 15.7357 18.4717 15.1297 18.4717 14.3833ZM18.4773 11.7571H20.032V17.0095H18.4773V16.6745C18.0241 16.9882 17.4859 17.1561 16.9347 17.1555C15.422 17.1555 14.1946 15.9148 14.1946 14.3833C14.1946 12.8529 15.422 11.6122 16.9347 11.6122C17.5064 11.6122 18.0372 11.7891 18.4762 12.0932L18.4773 11.7571ZM27.8355 11.6155C27.2151 11.6155 26.6268 11.8113 26.2343 12.3487V11.7571H24.6862V17.0095H26.2531V14.2495C26.2531 13.4511 26.7828 13.0597 27.4197 13.0597C28.1031 13.0597 28.4956 13.4732 28.4956 14.2384V17.0106H30.0492V13.6701C30.0492 12.4471 29.0872 11.6155 27.8355 11.6155ZM11.9311 17.0117H13.5588V9.41504H11.9311V17.0095V17.0117ZM4.78223 17.0117H6.50503V9.41504H4.78223V17.0117ZM10.8087 9.41504C10.8131 10.2144 10.6597 11.0067 10.3575 11.7467C10.0552 12.4868 9.60996 13.1599 9.04721 13.7276L11.4291 17.0117H9.30043L6.71181 13.4423L7.3797 12.9358C7.92451 12.5254 8.36589 11.9933 8.66865 11.382C8.9714 10.7707 9.12716 10.0972 9.12351 9.41504H10.8087Z" fill="#0A0B09"/>
</g>
<defs>
<clipPath id="clip0_449_5160">
<rect width="42.0195" height="26.5386" fill="white" transform="translate(0.359375 0.569336)"/>
</clipPath>
</defs>
</svg>
