<svg width="43" height="28" viewBox="0 0 43 28" fill="none" xmlns="http://www.w3.org/2000/svg">
<g clip-path="url(#clip0_449_5174)">
<path opacity="0.07" d="M39.25 0.569336H3.86518C1.98536 0.569336 0.547852 2.00685 0.547852 3.88667V23.7907C0.547852 25.6705 2.09594 27.108 3.86518 27.108H39.25C41.1299 27.108 42.5674 25.6705 42.5674 23.7907V3.88667C42.5674 2.00685 41.0193 0.569336 39.25 0.569336Z" fill="black"/>
<path d="M39.2502 1.6748C40.4666 1.6748 41.4618 2.67 41.4618 3.88636V23.7903C41.4618 25.0067 40.4666 26.0019 39.2502 26.0019H3.86536C2.64901 26.0019 1.65381 25.0067 1.65381 23.7903V3.88636C1.65381 2.67 2.64901 1.6748 3.86536 1.6748H39.2502Z" fill="white"/>
<path d="M17.1345 21.5785C21.4094 21.5785 24.8749 18.113 24.8749 13.8381C24.8749 9.56317 21.4094 6.09766 17.1345 6.09766C12.8596 6.09766 9.39404 9.56317 9.39404 13.8381C9.39404 18.113 12.8596 21.5785 17.1345 21.5785Z" fill="#EB001B"/>
<path d="M25.9807 21.5785C30.2556 21.5785 33.7211 18.113 33.7211 13.8381C33.7211 9.56317 30.2556 6.09766 25.9807 6.09766C21.7057 6.09766 18.2402 9.56317 18.2402 13.8381C18.2402 18.113 21.7057 21.5785 25.9807 21.5785Z" fill="#00A2E5"/>
<path d="M24.8749 13.8381C24.8749 11.1842 23.548 8.86209 21.5576 7.53516C19.5672 8.97267 18.2402 11.2948 18.2402 13.8381C18.2402 16.3814 19.5672 18.8141 21.5576 20.141C23.548 18.8141 24.8749 16.4919 24.8749 13.8381Z" fill="#7375CF"/>
</g>
<defs>
<clipPath id="clip0_449_5174">
<rect width="42.0195" height="26.5386" fill="white" transform="translate(0.547852 0.569336)"/>
</clipPath>
</defs>
</svg>
