<svg width="43" height="28" viewBox="0 0 43 28" fill="none" xmlns="http://www.w3.org/2000/svg">
<g clip-path="url(#clip0_449_5167)">
<path opacity="0.07" d="M39.1875 0.568848H3.80268C1.92286 0.568848 0.485352 2.00636 0.485352 3.88618V23.7902C0.485352 25.67 2.03344 27.1075 3.80268 27.1075H39.1875C41.0674 27.1075 42.5049 25.67 42.5049 23.7902V3.88618C42.5049 2.00636 40.9568 0.568848 39.1875 0.568848Z" fill="black"/>
<path d="M39.1882 1.6748C40.4046 1.6748 41.3998 2.67 41.3998 3.88636V23.7903C41.3998 25.0067 40.4046 26.0019 39.1882 26.0019H3.80335C2.587 26.0019 1.5918 25.0067 1.5918 23.7903V3.88636C1.5918 2.67 2.587 1.6748 3.80335 1.6748H39.1882Z" fill="white"/>
<path d="M17.072 21.5785C21.3469 21.5785 24.8124 18.113 24.8124 13.8381C24.8124 9.56317 21.3469 6.09766 17.072 6.09766C12.7971 6.09766 9.33154 9.56317 9.33154 13.8381C9.33154 18.113 12.7971 21.5785 17.072 21.5785Z" fill="#EB001B"/>
<path d="M25.9182 21.5785C30.1931 21.5785 33.6586 18.113 33.6586 13.8381C33.6586 9.56317 30.1931 6.09766 25.9182 6.09766C21.6432 6.09766 18.1777 9.56317 18.1777 13.8381C18.1777 18.113 21.6432 21.5785 25.9182 21.5785Z" fill="#F79E1B"/>
<path d="M24.8124 13.8381C24.8124 11.1842 23.4855 8.86209 21.4951 7.53516C19.5047 8.97267 18.1777 11.2948 18.1777 13.8381C18.1777 16.3814 19.5047 18.8141 21.4951 20.141C23.4855 18.8141 24.8124 16.4919 24.8124 13.8381Z" fill="#FF5F00"/>
</g>
<defs>
<clipPath id="clip0_449_5167">
<rect width="42.0195" height="26.5386" fill="white" transform="translate(0.485352 0.569336)"/>
</clipPath>
</defs>
</svg>
