<svg width="18" height="18" viewBox="0 0 18 18" fill="none" xmlns="http://www.w3.org/2000/svg">
<path d="M17.2131 0.823866L17.2043 0.814094L17.195 0.804798C16.7885 0.398401 16.0963 0.398401 15.6898 0.804798L9 7.49214L2.3102 0.804798C1.90366 0.398401 1.21153 0.398401 0.804985 0.804798C0.398338 1.2113 0.398338 1.90348 0.804985 2.30998L7.49452 8.99707L0.804985 15.6842C0.398338 16.0907 0.398338 16.7828 0.804985 17.1893C1.02597 17.4102 1.29874 17.5 1.55759 17.5C1.81645 17.5 2.08921 17.4102 2.3102 17.1893L9 10.502L15.6898 17.1893C15.9108 17.4102 16.1836 17.5 16.4424 17.5C16.7013 17.5 16.974 17.4102 17.195 17.1893C17.6017 16.7828 17.6017 16.0907 17.195 15.6842L10.5055 8.99707L17.195 2.30998C17.6113 1.89386 17.586 1.23803 17.2131 0.823866Z" fill="#F4F4F4" stroke="#F4F4F4"/>
</svg>
