<svg width="19" height="19" viewBox="0 0 19 19" fill="none" xmlns="http://www.w3.org/2000/svg">
<path fill-rule="evenodd" clip-rule="evenodd" d="M9.9101 10.0819L14.8776 10.0819C15.2445 10.0819 15.5411 9.7853 15.5411 9.41835C15.5411 9.0514 15.2445 8.75483 14.8776 8.75483L9.9101 8.75483L9.9101 3.78736C9.9101 3.42041 9.61353 3.12385 9.24658 3.12385C8.87963 3.12385 8.58306 3.42041 8.58306 3.78736L8.58307 8.75483L3.6156 8.75483C3.24865 8.75483 2.95208 9.0514 2.95208 9.41835C2.95208 9.60135 3.02622 9.76747 3.14635 9.8876C3.26648 10.0077 3.43259 10.0819 3.6156 10.0819L8.58307 10.0819L8.58307 15.0493C8.58307 15.2323 8.65721 15.3985 8.77734 15.5186C8.89746 15.6387 9.06358 15.7129 9.24658 15.7129C9.61354 15.7129 9.9101 15.4163 9.9101 15.0493L9.9101 10.0819Z" fill="#929292"/>
</svg>
