<svg width="86" height="12" viewBox="0 0 86 12" fill="none" xmlns="http://www.w3.org/2000/svg">
<path d="M5.82836 0.42053C6.04923 -0.0952553 6.80148 -0.0952546 7.02235 0.420531L8.3259 3.46479C8.41907 3.68223 8.62961 3.8308 8.87127 3.84962L12.2549 4.1131C12.8281 4.15774 13.0606 4.85264 12.6238 5.21606L10.0459 7.36097C9.86178 7.5142 9.78132 7.75461 9.83757 7.98364L10.6252 11.1907C10.7586 11.7341 10.1501 12.1636 9.65923 11.8725L6.76238 10.1538C6.55547 10.031 6.29524 10.031 6.08833 10.1538L3.19147 11.8725C2.70065 12.1636 2.09207 11.7341 2.22551 11.1907L3.01312 7.98364C3.06938 7.75461 2.98896 7.5142 2.80483 7.36097L0.226855 5.21606C-0.209928 4.85264 0.0225323 4.15774 0.595817 4.1131L3.97945 3.84962C4.22114 3.8308 4.43167 3.68223 4.52478 3.46479L5.82836 0.42053Z" fill="#D03130"/>
<path d="M24.3452 0.42053C24.5661 -0.0952553 25.3183 -0.0952546 25.5392 0.420531L26.8427 3.46479C26.9359 3.68223 27.1465 3.8308 27.3881 3.84962L30.7717 4.1131C31.345 4.15774 31.5774 4.85264 31.1407 5.21606L28.5627 7.36097C28.3786 7.5142 28.2982 7.75461 28.3544 7.98364L29.142 11.1907C29.2755 11.7341 28.6669 12.1636 28.1761 11.8725L25.2792 10.1538C25.0723 10.031 24.8121 10.031 24.6052 10.1538L21.7083 11.8725C21.2175 12.1636 20.6089 11.7341 20.7424 11.1907L21.53 7.98364C21.5862 7.75461 21.5058 7.5142 21.3217 7.36097L18.7437 5.21606C18.3069 4.85264 18.5394 4.15774 19.1127 4.1131L22.4963 3.84962C22.738 3.8308 22.9485 3.68223 23.0416 3.46479L24.3452 0.42053Z" fill="#D03130"/>
<path d="M42.4456 0.42053C42.6507 -0.0952553 43.3492 -0.0952546 43.5543 0.420531L44.7648 3.46479C44.8513 3.68223 45.0468 3.8308 45.2712 3.84962L48.4131 4.1131C48.9454 4.15774 49.1613 4.85264 48.7557 5.21606L46.3619 7.36097C46.1909 7.5142 46.1162 7.75461 46.1685 7.98364L46.8998 11.1907C47.0237 11.7341 46.4586 12.1636 46.0029 11.8725L43.3129 10.1538C43.1208 10.031 42.8791 10.031 42.687 10.1538L39.9971 11.8725C39.5413 12.1636 38.9762 11.7341 39.1001 11.1907L39.8315 7.98364C39.8837 7.75461 39.809 7.5142 39.6381 7.36097L37.2442 5.21606C36.8386 4.85264 37.0545 4.15774 37.5868 4.1131L40.7288 3.84962C40.9532 3.8308 41.1487 3.68223 41.2351 3.46479L42.4456 0.42053Z" fill="#D03130"/>
<path d="M60.4609 0.42053C60.6818 -0.0952553 61.434 -0.0952546 61.6549 0.420531L62.9585 3.46479C63.0516 3.68223 63.2622 3.8308 63.5038 3.84962L66.8874 4.1131C67.4607 4.15774 67.6932 4.85264 67.2564 5.21606L64.6785 7.36097C64.4943 7.5142 64.4139 7.75461 64.4701 7.98364L65.2577 11.1907C65.3912 11.7341 64.7826 12.1636 64.2918 11.8725L61.395 10.1538C61.188 10.031 60.9278 10.031 60.7209 10.1538L57.824 11.8725C57.3332 12.1636 56.7246 11.7341 56.8581 11.1907L57.6457 7.98364C57.7019 7.75461 57.6215 7.5142 57.4374 7.36097L54.8594 5.21606C54.4226 4.85264 54.6551 4.15774 55.2284 4.1131L58.612 3.84962C58.8537 3.8308 59.0642 3.68223 59.1573 3.46479L60.4609 0.42053Z" fill="#D03130"/>
<path fill-rule="evenodd" clip-rule="evenodd" d="M85.9312 4.47396L85.9825 4.63096C86.0246 4.74947 85.9891 4.88117 85.8928 4.96382L82.7786 7.57016L83.7013 11.4765C83.7326 11.6014 83.6846 11.7325 83.5796 11.8094L83.4386 11.9036C83.3838 11.9457 83.3159 11.9678 83.2464 11.9664C83.1877 11.9676 83.1299 11.9523 83.0798 11.9224L79.5748 9.83108L76.089 11.9224C76.0389 11.9523 75.981 11.9676 75.9224 11.9664C75.8528 11.9678 75.7849 11.9457 75.7301 11.9036L75.5699 11.8094C75.4649 11.7325 75.417 11.6014 75.4482 11.4765L76.3709 7.57016L73.2632 4.9701C73.1618 4.88794 73.1235 4.75258 73.1671 4.63096L73.2375 4.47396C73.275 4.34987 73.3877 4.26203 73.5195 4.25414L77.614 3.93385L79.1839 0.234732C79.2342 0.111885 79.3564 0.0320234 79.4915 0.0337612H79.658C79.7919 0.0309778 79.9128 0.111667 79.9592 0.234732L81.5547 3.93385L85.6493 4.25414C85.7811 4.26203 85.8937 4.34987 85.9312 4.47396ZM82.2148 10.12L81.4971 7.18078L83.8487 5.21503L80.7666 4.97638L79.5748 2.17535V8.54362L82.2148 10.12Z" fill="#D03130"/>
</svg>
