<svg width="24" height="23" viewBox="0 0 24 23" fill="none" xmlns="http://www.w3.org/2000/svg">
<path fill-rule="evenodd" clip-rule="evenodd" d="M2.933 11.3332C2.933 10.7072 3.44041 10.1998 4.06633 10.1998H17.196L14.5983 7.60122C14.1897 7.19268 14.1583 6.54981 14.504 6.10522L14.5983 5.99845C15.0068 5.5899 15.6497 5.55847 16.0943 5.90417L16.2011 5.99845L20.7344 10.5318L20.7813 10.5816V10.5816L20.8438 10.6585V10.6585L20.925 10.7846V10.7846L20.9856 10.9123V10.9123L21.0257 11.0317V11.0317L21.0586 11.2V11.2L21.0663 11.3332L21.0632 11.4184V11.4184L21.0434 11.5607V11.5607L21.01 11.6869V11.6869L20.9602 11.8128V11.8128L20.9009 11.9233V11.9233L20.8252 12.0322C20.797 12.0681 20.7666 12.1023 20.7344 12.1346L16.2011 16.6679C15.7585 17.1105 15.0409 17.1105 14.5983 16.6679C14.1897 16.2593 14.1583 15.6165 14.504 15.1719L14.5983 15.0651L17.196 12.4665H4.06633C3.44041 12.4665 2.933 11.9591 2.933 11.3332Z" fill="black"/>
</svg>
