<svg width="120" height="17" viewBox="0 0 120 17" fill="none" xmlns="http://www.w3.org/2000/svg">
<g clip-path="url(#clip0_430_3983)">
<path d="M8.13259 0.617899C8.44078 -0.101801 9.49044 -0.1018 9.79862 0.617901L11.6175 4.8657C11.7475 5.16911 12.0413 5.37642 12.3785 5.40267L17.0998 5.77032C17.8997 5.83262 18.2241 6.80225 17.6146 7.30934L14.0175 10.3022C13.7606 10.516 13.6483 10.8515 13.7268 11.1711L14.8258 15.6461C15.012 16.4043 14.1629 17.0036 13.478 16.5973L9.43589 14.1992C9.14716 14.0279 8.78406 14.0279 8.49534 14.1992L4.45321 16.5973C3.76835 17.0036 2.91916 16.4043 3.10536 15.6461L4.20435 11.1711C4.28285 10.8515 4.17064 10.516 3.91372 10.3022L0.316542 7.30934C-0.292922 6.80225 0.0314405 5.83262 0.831373 5.77032L5.55272 5.40267C5.88996 5.37642 6.18372 5.16911 6.31364 4.8657L8.13259 0.617899Z" fill="black"/>
<path d="M33.9699 0.617899C34.2781 -0.101801 35.3277 -0.1018 35.6359 0.617901L37.4548 4.8657C37.5848 5.16911 37.8786 5.37642 38.2158 5.40267L42.9371 5.77032C43.737 5.83262 44.0614 6.80225 43.4519 7.30934L39.8548 10.3022C39.5979 10.516 39.4856 10.8515 39.5641 11.1711L40.6631 15.6461C40.8493 16.4043 40.0002 17.0036 39.3153 16.5973L35.2732 14.1992C34.9844 14.0279 34.6213 14.0279 34.3326 14.1992L30.2905 16.5973C29.6056 17.0036 28.7564 16.4043 28.9426 15.6461L30.0416 11.1711C30.1201 10.8515 30.0079 10.516 29.751 10.3022L26.1538 7.30934C25.5444 6.80225 25.8687 5.83262 26.6687 5.77032L31.39 5.40267C31.7272 5.37642 32.021 5.16911 32.1509 4.8657L33.9699 0.617899Z" fill="black"/>
<path d="M59.2265 0.617899C59.5127 -0.101801 60.4874 -0.1018 60.7735 0.617901L62.4625 4.8657C62.5832 5.16911 62.856 5.37642 63.1691 5.40267L67.5532 5.77032C68.296 5.83262 68.5972 6.80225 68.0312 7.30934L64.6911 10.3022C64.4525 10.516 64.3483 10.8515 64.4212 11.1711L65.4416 15.6461C65.6145 16.4043 64.826 17.0036 64.1901 16.5973L60.4367 14.1992C60.1686 14.0279 59.8314 14.0279 59.5633 14.1992L55.8099 16.5973C55.174 17.0036 54.3855 16.4043 54.5584 15.6461L55.5788 11.1711C55.6517 10.8515 55.5475 10.516 55.309 10.3022L51.9687 7.30934C51.4028 6.80225 51.704 5.83262 52.4468 5.77032L56.8309 5.40267C57.1441 5.37642 57.4168 5.16911 57.5375 4.8657L59.2265 0.617899Z" fill="black"/>
<path d="M84.3639 0.617899C84.6721 -0.101801 85.7218 -0.1018 86.0299 0.617901L87.8489 4.8657C87.9789 5.16911 88.2726 5.37642 88.6098 5.40267L93.3311 5.77032C94.1311 5.83262 94.4554 6.80225 93.846 7.30934L90.2489 10.3022C89.9919 10.516 89.8797 10.8515 89.9582 11.1711L91.0572 15.6461C91.2433 16.4043 90.3942 17.0036 89.7093 16.5973L85.6672 14.1992C85.3785 14.0279 85.0154 14.0279 84.7267 14.1992L80.6845 16.5973C79.9997 17.0036 79.1505 16.4043 79.3367 15.6461L80.4357 11.1711C80.5142 10.8515 80.402 10.516 80.145 10.3022L76.5479 7.30934C75.9384 6.80225 76.2628 5.83262 77.0627 5.77032L81.784 5.40267C82.1213 5.37642 82.415 5.16911 82.545 4.8657L84.3639 0.617899Z" fill="black"/>
<path fill-rule="evenodd" clip-rule="evenodd" d="M119.904 6.27384L119.976 6.49292C120.034 6.65828 119.985 6.84205 119.85 6.95738L115.505 10.5941L116.793 16.0449C116.836 16.2191 116.769 16.402 116.623 16.5093L116.426 16.6408C116.35 16.6995 116.255 16.7304 116.158 16.7284C116.076 16.7301 115.995 16.7088 115.925 16.6671L111.035 13.7489L106.171 16.6671C106.101 16.7088 106.02 16.7301 105.938 16.7284C105.841 16.7304 105.746 16.6995 105.67 16.6408L105.447 16.5093C105.3 16.402 105.233 16.2191 105.277 16.0449L106.564 10.5941L102.228 6.96614C102.086 6.8515 102.033 6.66262 102.094 6.49292L102.192 6.27384C102.244 6.1007 102.402 5.97813 102.585 5.96713L108.299 5.5202L110.489 0.358646C110.559 0.187233 110.73 0.0757976 110.918 0.0782224H111.151C111.338 0.0743385 111.506 0.186929 111.571 0.358646L113.797 5.5202L119.511 5.96713C119.695 5.97813 119.852 6.1007 119.904 6.27384ZM114.718 14.152L113.717 10.0508L116.998 7.30791L112.698 6.9749L111.035 3.06649V11.9524L114.718 14.152Z" fill="black"/>
</g>
<defs>
<clipPath id="clip0_430_3983">
<rect width="120" height="16.6504" fill="white" transform="translate(0 0.078125)"/>
</clipPath>
</defs>
</svg>
