<svg width="21" height="22" viewBox="0 0 21 22" fill="none" xmlns="http://www.w3.org/2000/svg">
<path d="M10.5001 0.635742C8.42335 0.635742 6.39327 1.25156 4.66654 2.40532C2.93982 3.55908 1.594 5.19897 0.799274 7.1176C0.00454951 9.03623 -0.203387 11.1474 0.20176 13.1843C0.606907 15.2211 1.60694 17.092 3.0754 18.5605C4.54386 20.0289 6.41479 21.029 8.4516 21.4341C10.4884 21.8392 12.5996 21.6313 14.5183 20.8366C16.4369 20.0419 18.0768 18.696 19.2305 16.9693C20.3843 15.2426 21.0001 13.2125 21.0001 11.1358C21.0001 9.75691 20.7285 8.39153 20.2008 7.1176C19.6732 5.84367 18.8997 4.68616 17.9247 3.71114C16.9497 2.73612 15.7922 1.96269 14.5183 1.43501C13.2443 0.907334 11.8789 0.635742 10.5001 0.635742ZM15.0151 8.62628L10.2166 14.9263C10.1187 15.0534 9.99312 15.1564 9.84934 15.2273C9.70555 15.2983 9.54741 15.3354 9.38706 15.3358C9.22757 15.3367 9.06998 15.3012 8.92625 15.2321C8.78252 15.1629 8.65643 15.062 8.55755 14.9368L5.99554 11.6713C5.91074 11.5624 5.84822 11.4378 5.81156 11.3047C5.7749 11.1716 5.76481 11.0326 5.78188 10.8956C5.79894 10.7586 5.84282 10.6263 5.91101 10.5063C5.97919 10.3863 6.07036 10.2808 6.17929 10.196C6.39929 10.0248 6.67831 9.94792 6.95497 9.98238C7.09196 9.99945 7.22425 10.0433 7.34428 10.1115C7.46432 10.1797 7.56974 10.2709 7.65455 10.3798L9.36606 12.5638L13.3351 7.31378C13.4192 7.20347 13.5242 7.1108 13.6441 7.04108C13.7641 6.97135 13.8965 6.92593 14.034 6.9074C14.1715 6.88888 14.3113 6.89761 14.4454 6.93311C14.5795 6.9686 14.7053 7.03016 14.8156 7.11428C14.9259 7.19839 15.0186 7.3034 15.0883 7.42333C15.158 7.54325 15.2034 7.67573 15.222 7.81321C15.2405 7.95069 15.2317 8.09047 15.1963 8.22457C15.1608 8.35868 15.0992 8.48447 15.0151 8.59478V8.62628Z" fill="#97BF9A"/>
</svg>
