<svg width="43" height="28" viewBox="0 0 43 28" fill="none" xmlns="http://www.w3.org/2000/svg">
<g clip-path="url(#clip0_449_5181)">
<path opacity="0.07" d="M39.3125 0.569336H3.92768C2.04786 0.569336 0.610352 2.00685 0.610352 3.88667V23.7907C0.610352 25.6705 2.15844 27.108 3.92768 27.108H39.3125C41.1924 27.108 42.6299 25.6705 42.6299 23.7907V3.88667C42.6299 2.00685 41.0818 0.569336 39.3125 0.569336Z" fill="black"/>
<path d="M39.3127 1.6748C40.5291 1.6748 41.5243 2.67 41.5243 3.88636V23.7903C41.5243 25.0067 40.5291 26.0019 39.3127 26.0019H3.92786C2.71151 26.0019 1.71631 25.0067 1.71631 23.7903V3.88636C1.71631 2.67 2.71151 1.6748 3.92786 1.6748H39.3127Z" fill="white"/>
<path d="M31.9042 11.7377H31.5725C31.1302 12.8434 30.7985 13.3963 30.4667 15.055H32.5677C32.236 13.3963 32.236 12.6223 31.9042 11.7377ZM35.111 18.2617H33.2312C33.1206 18.2617 33.1206 18.2617 33.01 18.1512L32.7889 17.156L32.6783 16.9348H30.0244C29.9138 16.9348 29.8033 16.9348 29.8033 17.156L29.4715 18.1512C29.4715 18.2617 29.361 18.2617 29.361 18.2617H27.0388L27.26 17.7089L30.4667 10.1896C30.4667 9.63668 30.7985 9.41553 31.3514 9.41553H33.01C33.1206 9.41553 33.2312 9.41553 33.2312 9.63668L34.7793 16.8242C34.8898 17.2665 35.0004 17.5983 35.0004 18.0406C35.111 18.1512 35.111 18.1512 35.111 18.2617ZM20.2936 17.93L20.7359 15.9396C20.8465 15.9396 20.9571 16.0502 20.9571 16.0502C21.7311 16.3819 22.5051 16.6031 23.2792 16.4925C23.5003 16.4925 23.8321 16.3819 24.0532 16.2713C24.6061 16.0502 24.6061 15.4973 24.1638 15.055C23.9427 14.8338 23.6109 14.7233 23.2792 14.5021C22.8369 14.2809 22.3946 14.0598 22.0628 13.7281C20.7359 12.6223 21.1782 11.0742 21.9523 10.3001C22.6157 9.85784 22.9475 9.41553 23.8321 9.41553C25.159 9.41553 26.5965 9.41553 27.26 9.63668H27.3706C27.26 10.3001 27.1494 10.853 26.9283 11.5165C26.3754 11.2953 25.8225 11.0742 25.2696 11.0742C24.9379 11.0742 24.6061 11.0742 24.2744 11.1848C24.0532 11.1848 23.9427 11.2953 23.8321 11.4059C23.6109 11.6271 23.6109 11.9588 23.8321 12.18L24.385 12.6223C24.8273 12.8434 25.2696 13.0646 25.6013 13.2857C26.1542 13.6175 26.7071 14.1704 26.8177 14.8338C27.0388 15.829 26.7071 16.7137 25.8225 17.3771C25.2696 17.8194 25.0484 18.0406 24.2744 18.0406C22.7263 18.0406 21.5099 18.1512 20.5147 17.8194C20.4042 18.0406 20.4042 18.0406 20.2936 17.93ZM16.4234 18.2617C16.534 17.4877 16.5339 17.4877 16.6445 17.156C17.1974 14.7233 17.7503 12.18 18.1926 9.74726C18.3032 9.52611 18.3032 9.41553 18.5243 9.41553H20.5147C20.2936 10.7425 20.0724 11.7377 19.7407 12.954C19.409 14.6127 19.0772 16.2713 18.6349 17.93C18.6349 18.1512 18.5243 18.1512 18.3032 18.1512M6.13965 9.63668C6.13965 9.5261 6.3608 9.41553 6.47138 9.41553H10.231C10.7839 9.41553 11.2262 9.74726 11.3368 10.3001L12.332 15.1656C12.332 15.2761 12.332 15.2761 12.4426 15.3867C12.4426 15.2761 12.5532 15.2761 12.5532 15.2761L14.8753 9.63668C14.7647 9.5261 14.8753 9.41553 14.9859 9.41553H17.308C17.308 9.52611 17.308 9.5261 17.1974 9.63668L13.7695 17.7089C13.6589 17.93 13.6589 18.0406 13.5484 18.1512C13.4378 18.2617 13.2166 18.1512 12.9955 18.1512H11.3368C11.2262 18.1512 11.1156 18.1512 11.1156 17.93L9.3464 11.0742C9.12525 10.853 8.79351 10.5213 8.3512 10.4107C7.68774 10.079 6.47138 9.85784 6.25023 9.85784L6.13965 9.63668Z" fill="#142688"/>
</g>
<defs>
<clipPath id="clip0_449_5181">
<rect width="42.0195" height="26.5386" fill="white" transform="translate(0.610352 0.569336)"/>
</clipPath>
</defs>
</svg>
